<svg xmlns="http://www.w3.org/2000/svg" viewBox="0 0 24 24" fill="currentColor"><path d="M12 2C6.48 2 2 6.58 2 12.23c0 4.52 2.87 8.35 6.84 9.7.5.1.68-.22.68-.49 0-.24-.01-1.04-.01-1.89-2.78.62-3.37-1.21-3.37-1.21-.46-1.19-1.11-1.51-1.11-1.51-.91-.64.06-.63.06-.63 1 .07 1.53 1.06 1.53 1.06.9 1.57 2.35 1.12 2.92.86.09-.67.35-1.12.64-1.38-2.22-.26-4.56-1.14-4.56-5.05 0-1.12.39-2.03 1.03-2.75-.1-.26-.45-1.31.1-2.73 0 0 .84-.28 2.75 1.05A9.3 9.3 0 0 1 12 6.16c.85 0 1.7.12 2.5.34 1.91-1.33 2.75-1.05 2.75-1.05.55 1.42.2 2.47.1 2.73.64.72 1.03 1.63 1.03 2.75 0 3.92-2.35 4.79-4.58 5.04.36.32.68.93.68 1.88 0 1.36-.01 2.45-.01 2.79 0 .27.18.59.69.49A10.24 10.24 0 0 0 22 12.23C22 6.58 17.52 2 12 2Z"/></svg>
